HIERARCHY
ROOT hip
{
	OFFSET 0.000000 0.000000 0.000000 
	CHANNELS 6 Xposition Yposition Zposition Xrotation Zrotation Yrotation
	JOINT abdomen
	{
		OFFSET 0.000000 3.402643 0.000000 
		CHANNELS 3 Xrotation Zrotation Yrotation
		JOINT chest
		{
			OFFSET 0.000000 8.438565 -0.680529 
			CHANNELS 3 Xrotation Zrotation Yrotation
			JOINT neck
			{
				OFFSET 0.000000 10.207942 -0.272212 
				CHANNELS 3 Xrotation Zrotation Yrotation
				JOINT head
				{
					OFFSET 0.000000 3.130431 0.000000 
					CHANNELS 3 Xrotation Zrotation Yrotation
					End Site
					{
						OFFSET 0.000000 3.130435 0.000000 
					}
				}
			}
			JOINT lCollar
			{
				OFFSET 3.470700 6.669187 -0.816635 
				CHANNELS 3 Yrotation Zrotation Xrotation
				JOINT lShldr
				{
					OFFSET 3.198488 0.000000 0.000000 
					CHANNELS 3 Zrotation Yrotation Xrotation
					JOINT lForeArm
					{
						OFFSET 10.139888 0.000000 0.000000 
						CHANNELS 3 Yrotation Zrotation Xrotation
						JOINT lHand
						{
							OFFSET 8.370511 0.000000 0.000000 
							CHANNELS 3 Zrotation Yrotation Xrotation
							End Site
							{
								OFFSET 4.083176 0.000000 0.000000 
							}
						}
					}
				}
			}
			JOINT rCollar
			{
				OFFSET -3.470700 6.669187 -0.816635 
				CHANNELS 3 Yrotation Zrotation Xrotation
				JOINT rShldr
				{
					OFFSET -3.198488 0.000000 0.000000 
					CHANNELS 3 Zrotation Yrotation Xrotation
					JOINT rForeArm
					{
						OFFSET -10.139888 0.000000 0.000000 
						CHANNELS 3 Yrotation Zrotation Xrotation
						JOINT rHand
						{
							OFFSET -8.370511 0.000000 0.000000 
							CHANNELS 3 Zrotation Yrotation Xrotation
							End Site
							{
								OFFSET -4.083176 0.000000 0.000000 
							}
						}
					}
				}
			}
		}
	}
	JOINT lThigh
	{
		OFFSET 5.308129 -1.633274 1.361059 
		CHANNELS 3 Xrotation Zrotation Yrotation
		JOINT lShin
		{
			OFFSET -2.041588 -20.007561 0.000000 
			CHANNELS 3 Xrotation Zrotation Yrotation
			JOINT lFoot
			{
				OFFSET 0.000000 -19.190928 -1.224953 
				CHANNELS 3 Xrotation Yrotation Zrotation
				End Site
				{
					OFFSET 0.000000 -2.449906 4.627600 
				}
			}
		}
	}
	JOINT rThigh
	{
		OFFSET -5.308129 -1.633274 1.361059 
		CHANNELS 3 Xrotation Zrotation Yrotation
		JOINT rShin
		{
			OFFSET 2.041588 -20.007561 0.000000 
			CHANNELS 3 Xrotation Zrotation Yrotation
			JOINT rFoot
			{
				OFFSET 0.000000 -19.190928 -1.224953 
				CHANNELS 3 Xrotation Yrotation Zrotation
				End Site
				{
					OFFSET 0.000000 -2.449906 4.627600 
				}
			}
		}
	}
}
MOTION
Frames: 10
Frame Time: 0.033333
-1.327002 48.839249 3.737226 -0.800830 -0.634704 0.008871 0.000000 0.000000 0.000000 -5.830115 0.204017 -0.567706 3.999157 0.048183 -2.025439 12.301296 3.362143 -2.155685 -0.108480 9.653418 -4.791494 -11.787994 5.623971 -13.857786 0.545611 -4.489540 19.831257 2.079764 -2.843373 -3.512832 -0.773365 -10.071349 -4.791413 8.375373 -5.520737 -26.377382 -0.661472 1.623353 28.022158 -3.039624 1.277040 -3.561055 11.062005 15.681795 9.427421 -3.555639 -4.078356 0.775101 -4.140607 0.442731 -12.314579 1.990551 -15.834839 -6.623702 16.673948 3.873925 2.165082 -7.780986 -0.834601 12.391255 
-1.372556 48.829811 3.563853 -0.898498 -0.663981 0.127600 0.000000 0.000000 0.000000 -5.615284 0.242969 -0.502404 3.987582 0.300120 -1.994657 12.251675 3.167410 -2.063548 -0.343633 10.089922 -4.575233 -12.033215 5.444751 -13.995888 0.537981 -4.435622 20.054306 2.082167 -2.882361 -3.513322 -0.807387 -9.814116 -4.595695 8.092212 -5.335626 -26.527071 -0.642341 1.605430 27.991724 -3.446521 1.525479 -3.583735 10.886538 15.769740 9.419400 -3.555387 -4.078078 0.784853 -3.866228 0.406319 -12.340603 1.659002 -15.778224 -6.535631 17.167707 3.855582 2.227475 -7.884707 -0.852965 12.290034 
-1.416476 48.827419 3.379329 -0.937608 -0.869024 0.170470 0.000000 0.000000 0.000000 -5.439641 0.476361 -0.475047 4.192427 0.505745 -1.833757 11.722370 2.759585 -1.939242 -0.362999 10.282876 -4.405039 -11.985386 5.101545 -14.284133 0.540645 -4.343453 20.266426 2.426477 -3.379700 -3.543064 -0.702171 -9.627619 -4.432973 7.854970 -5.142412 -26.474079 -0.630445 1.595323 28.586695 -3.426341 1.360405 -3.573188 10.661503 16.032959 9.506598 -3.555658 -4.078339 0.775100 -3.576105 0.382425 -12.371202 1.394331 -15.518965 -6.396985 17.308374 3.854275 2.228169 -7.793877 -0.832077 12.232231 
-1.460394 48.826027 3.207037 -0.927841 -0.869027 0.414463 0.000000 0.000000 0.000000 -5.312740 0.544526 -0.597508 4.066279 0.434490 -1.820473 12.181293 2.553613 -1.832299 -0.522978 10.342360 -4.287655 -11.835102 4.888679 -14.215931 0.529484 -4.422661 20.248493 2.897569 -3.389610 -3.570340 -0.905186 -9.631062 -4.323163 7.743135 -4.753366 -26.385702 -0.645439 1.639920 29.399012 -3.725671 1.762280 -3.599334 10.330392 16.092123 9.450949 -3.555643 -4.078356 0.775100 -3.257028 0.348779 -12.383402 1.053075 -15.499835 -6.322379 17.699934 3.844652 2.265016 -7.821636 -0.816380 12.176135 
-1.478138 48.839123 3.020940 -1.074329 -0.820168 0.650144 0.000000 0.000000 0.000000 -5.107662 0.554430 -0.762444 4.329754 0.471677 -1.811172 12.189415 1.871332 -1.523118 -0.765671 10.337165 -4.076366 -11.492647 4.676376 -14.353528 0.530521 -4.403934 20.384632 2.243853 -3.596439 -3.532239 -0.956083 -9.479745 -4.123672 7.578176 -4.370807 -26.657291 -0.622970 1.511564 30.302315 -3.278602 2.123128 -3.582888 10.093801 16.070240 9.379982 -3.562455 -4.084874 0.785202 -2.912149 0.305650 -12.324580 1.190067 -15.492676 -6.350976 17.430531 3.845649 2.225846 -7.740206 -0.820298 12.118028 
-1.472852 48.858002 2.879090 -1.015732 -0.829948 0.698306 0.000000 0.000000 0.000000 -5.127285 0.651679 -0.751828 4.359648 0.436084 -1.568001 12.628618 1.646322 -1.319483 -0.686822 10.361152 -4.114242 -11.264421 4.277849 -14.407928 0.530302 -4.446972 20.473728 2.258927 -3.840116 -3.533524 -0.985060 -9.556396 -4.159697 7.763394 -4.075678 -26.750942 -0.606847 1.414947 31.470758 -3.264654 2.368624 -3.581948 9.842973 16.064497 9.329256 -3.551544 -4.094899 0.775200 -2.752395 0.286939 -12.136523 1.004917 -15.482107 -6.317560 17.387829 3.864495 2.186564 -7.538124 -0.786516 12.105250 
-1.442902 48.867310 2.727299 -1.015715 -0.761599 0.706860 0.000000 0.000000 0.000000 -5.058962 0.690659 -0.754494 4.476844 0.427451 -1.363621 12.696542 1.402665 -1.120132 -0.737348 10.539000 -4.033709 -11.187951 4.022951 -14.665944 0.522990 -4.347439 20.645916 2.246747 -3.801728 -3.532946 -0.768982 -9.454713 -4.068329 7.591557 -4.080504 -26.381189 -0.632956 1.566481 31.554012 -3.321491 2.805378 -3.594705 9.662882 15.951972 9.239047 -3.562937 -4.085452 0.765699 -2.586021 0.266475 -11.949127 0.984689 -15.548439 -6.361047 17.048836 3.864877 2.122815 -7.367893 -0.773893 12.126346 
-1.403763 48.879391 2.582843 -1.054796 -0.820174 0.757286 0.000000 0.000000 0.000000 -4.932180 0.846464 -0.698036 4.516834 0.385436 -1.140733 12.784424 1.383030 -1.031516 -0.637100 10.694670 -3.922622 -11.002295 3.446174 -15.014002 0.523048 -4.306325 20.527590 2.057841 -4.077516 -3.521600 -0.621496 -9.603031 -3.945926 7.928768 -4.052260 -26.055925 -0.609666 1.800079 30.076082 -3.571037 1.948175 -3.590155 9.497932 15.963253 9.208226 -3.563376 -4.084569 0.775423 -2.414431 0.234475 -11.766251 1.268946 -15.475786 -6.404398 16.245522 3.883961 1.979304 -7.143767 -0.753510 12.127931 
-1.360727 48.890343 2.450745 -1.054796 -0.820174 0.767052 0.000000 0.000000 0.000000 -4.863903 0.914664 -0.663758 4.682412 0.453267 -0.999848 12.578634 0.915761 -0.834656 -0.436773 10.786828 -3.876032 -10.636560 2.902239 -15.079885 0.494432 -4.337996 20.780262 1.476905 -4.201054 -3.477896 -0.354423 -9.553137 -3.870119 8.099292 -4.185703 -26.271513 -0.601357 1.687419 30.150562 -3.176133 1.738161 -3.568001 9.354905 15.928312 9.171293 -3.564016 -4.097981 0.756549 -2.283642 0.222385 -11.608573 1.463133 -15.481606 -6.458022 15.584636 3.884646 1.853179 -6.915134 -0.721596 12.166251 
-1.329139 48.876743 2.322662 -1.054793 -0.810410 0.581325 0.000000 0.000000 0.000000 -4.727180 0.924579 -0.418239 4.611758 0.497175 -0.679588 12.695966 1.022777 -0.746976 -0.425892 10.996957 -3.739950 -10.400919 2.571559 -15.192665 0.484640 -4.337841 20.779573 1.781654 -4.211837 -3.505612 -0.242102 -9.121460 -3.753536 7.774024 -4.228744 -26.089466 -0.640589 1.848341 29.648998 -3.502092 1.786175 -3.586503 9.294019 15.905483 9.143844 -3.563171 -4.085748 0.755948 -2.225148 0.211674 -11.684261 1.230009 -15.524579 -6.435279 15.613132 3.894323 1.836975 -6.867561 -0.743198 12.176429 
